<?xml version="1.0" encoding="UTF-8" standalone="no"?>

<!-- Created with Inkscape (http://www.inkscape.org/) -->

<svg xmlns:rdf="http://www.w3.org/1999/02/22-rdf-syntax-ns#" xmlns="http://www.w3.org/2000/svg" height="437.18" width="439.94" version="1.1" xmlns:cc="http://creativecommons.org/ns#" xmlns:xlink="http://www.w3.org/1999/xlink" xmlns:dc="http://purl.org/dc/elements/1.1/">

 <defs>

  <clipPath id="clipPath3861" clipPathUnits="userSpaceOnUse">

   <path d="M38.86,534.72c-3.863-164.89-6.73-335.16-1.971-546.64,4.419-243.3,90.701-569.58,199.27-577.4,108.58,7.8249,194.85,334.1,199.27,577.4,4.7592,211.47,1.8921,381.75-1.9713,546.64-28.279,50.547-121.03,17.121-195.3,20.69-74.25-3.56-171.02,29.86-199.3-20.69z" style="fill:#f79f32;"/>

  </clipPath>

 </defs>
 
 <g transform="translate(-169.42363,-357.79943)">

  <path style="fill:#677821;" d="m177.08,772.13c-4.1574-49.272-7.2427-100.15-2.1213-163.34,4.7558-72.702,97.6-170.2,214.44-172.53,116.84,2.3382,209.68,99.832,214.44,172.53,5.1213,63.19,2.036,114.07-2.1213,163.34-30.43,15.104-130.24,5.116-210.15,6.1824-79.911-1.0665-184.04,8.9216-214.47-6.1824z"/>

 </g>

 <g transform="translate(-169.42363,-357.79943)">

  <path style="fill:none;" d="m604.78,773.81c0,1.7066-95.659,3.0901-213.66,3.0901s-213.66-1.3835-213.66-3.0901,95.659-3.0901,213.66-3.0901,213.66,1.3835,213.66,3.0901z"/>

  <path style="fill-opacity:0.5098038;fill:#000000;" d="m433.5,532.78c0,26.575-88.346,48.118-197.33,48.118s-197.33-21.543-197.33-48.118,88.346-48.118,197.33-48.118,197.33,21.543,197.33,48.118z" clip-path="url(#clipPath3861)" transform="matrix(1.0760824,0,0,0.29881024,135.26407,612.34728)"/>

 </g>

 <g transform="translate(-169.42363,-357.79943)">

  <path style="fill-rule:nonzero;fill:#363636;" d="m272.61,777.33c76.926-4.0566,154.52-5.2023,233.59,0,2.9674,0.19525,5.3824,1.6005,5.3824,3.5885v2.2012c0,1.988-2.4005,3.5885-5.3824,3.5885h-233.59c-2.9818,0-5.3824-1.6005-5.3824-3.5885v-2.2012c0-1.988,2.4098-3.4318,5.3824-3.5885z"/>

 </g>

 <g transform="translate(-169.42363,-357.79943)">

  <path style="fill:#a9a9a9;" d="M594.91,551.66c-34.63-47.23-74.22-121.07-205.52-120.74-131.29-0.33-170.88,73.51-205.51,120.74,66.093,5.1245,134.91,6.1656,205.52-0.75462,70.607,6.9202,139.42,5.8792,205.52,0.75462z"/>

  <g transform="translate(2.0721485,4)">

   <path d="m288.29,497.64-57.395,37.826c-32.265-30.234-75.858-67.66-60.293-116.99,10.144-24.086,63.544-50.383,91.909-64.678-15.128,22.867-40.98,51.888-45.054,68.503-0.30336,39.216,39.477,54.792,70.833,75.337z" style="fill:#a9a9a9;"/>

   <rect ry="5.3824" style="fill-rule:nonzero;fill:#7e7e7e;" transform="matrix(0.69962751,-0.71450777,0.68516247,0.72839027,0,0)" height="30.683" width="91.972" y="489.58" x="-219.71"/>

  </g>

  <g transform="matrix(-1,0,0,1,776.71732,4)">

   <path style="fill:#a9a9a9;" d="m288.29,497.64-57.395,37.826c-32.265-30.234-75.858-67.66-60.293-116.99,10.144-24.086,63.544-50.383,91.909-64.678-15.128,22.867-40.98,51.888-45.054,68.503-0.30336,39.216,39.477,54.792,70.833,75.337z"/>

   <rect style="fill-rule:nonzero;fill:#7e7e7e;" transform="matrix(0.69962751,-0.71450777,0.68516247,0.72839027,0,0)" ry="5.3824" height="30.683" width="91.972" y="489.58" x="-219.71"/>

  </g>

 </g>

 <g transform="translate(-169.42363,-357.79943)">

  <path style="fill:#502d16;" d="m319.6,729.23c-1.0059-61.711,44.259-48.417,69.799-69.228,25.541,20.811,70.805,7.5171,69.799,69.228,2.1257,10.341-49.32,25.461-69.799,65.756-20.479-40.294-71.925-55.414-69.799-65.756z"/>

 </g>

 <g transform="translate(-169.42363,-357.79943)">

  <path style="stroke-linejoin:round;fill-rule:nonzero;stroke:#363636;stroke-miterlimit:4;stroke-dasharray:none;stroke-width:7.43235064;fill:#363636;" d="m345.43,676.69,87.732,0.24315,4.615,36.006-96.774,0z"/>

 </g>

 <g transform="translate(-169.42363,-357.79943)">

  <g style="fill:#432514;" transform="matrix(0.30989371,0,0,0.30989371,301.49449,482.12203)">

   <path d="m250.63,545.38c-76.774,1.88-104.24,68.192-153.84,74.249-35.734-0.52399-59.674-29.412-59.164-66.327-13.807,110.36,63.841,114.14,68.654,116.18,73.63,14.936,117.29,10.447,154.91-19.364,15.756-12.45,59.758-96.453-10.562-104.74z" style="fill:#432514;"/>

   <path style="fill:#432514;" d="m316.66,545.38c76.774,1.88,104.24,68.192,153.84,74.249,35.734-0.52399,59.674-29.412,59.164-66.327,13.807,110.36-63.841,114.14-68.654,116.18-73.63,14.936-117.29,10.447-154.91-19.364-15.76-12.45-59.76-96.45,10.56-104.74z"/>

  </g>

 </g>

 <g transform="translate(-169.42363,-357.79943)">

  <rect style="stroke-linejoin:round;fill-rule:nonzero;stroke-dashoffset:14.48;stroke:#6e6e6e;stroke-linecap:round;stroke-miterlimit:4;stroke-dasharray:none;stroke-width:10;fill:#363636;" ry="6.6831" height="86" width="260" y="536.36" x="261.39"/>

  <rect style="stroke-linejoin:round;fill-rule:nonzero;stroke-dashoffset:14.48;stroke:#363636;stroke-linecap:round;stroke-miterlimit:4;stroke-dasharray:none;stroke-width:10;fill:#363636;" ry="6.6831" height="86" width="260" y="534.36" x="259.39"/>

 </g>

 <g transform="translate(-169.42363,-357.79943)">

  <path style="stroke-linejoin:miter;stroke:#0092e1;stroke-linecap:butt;stroke-miterlimit:4.0999999;stroke-dasharray:none;stroke-width:5;fill:none;" d="m254.41,580.06,24.584,0,22.241-23.001,26.618,36.697l32.15-35.4,27,33,42-32,26,49,26-65,20.419,36.698h22.918"/>

 </g>

</svg>

