<?xml version="1.0" encoding="UTF-8" standalone="no"?>
<!-- Created with Inkscape (http://www.inkscape.org/) -->

<svg
   xmlns:dc="http://purl.org/dc/elements/1.1/"
   xmlns:cc="http://creativecommons.org/ns#"
   xmlns:rdf="http://www.w3.org/1999/02/22-rdf-syntax-ns#"
   xmlns:svg="http://www.w3.org/2000/svg"
   xmlns="http://www.w3.org/2000/svg"
   xmlns:xlink="http://www.w3.org/1999/xlink"
   xmlns:sodipodi="http://sodipodi.sourceforge.net/DTD/sodipodi-0.dtd"
   xmlns:inkscape="http://www.inkscape.org/namespaces/inkscape"
   width="439.9422"
   height="437.18173"
   id="svg2"
   version="1.1"
   inkscape:version="0.48.4 r9939"
   sodipodi:docname="hubot.svg"
   inkscape:export-filename="D:\projects\vectors\hubot\dorfbot.png"
   inkscape:export-xdpi="102.31443"
   inkscape:export-ydpi="102.31443">
  <defs
     id="defs4">
    <clipPath
       clipPathUnits="userSpaceOnUse"
       id="clipPath3861">
      <path
         sodipodi:nodetypes="ccccccc"
         inkscape:connector-curvature="0"
         id="path3863"
         d="M 38.860128,534.72491 C 34.996716,369.83144 32.129547,199.55645 36.888792,-11.915221 41.308351,-255.2205 127.58778,-581.49376 236.16283,-589.31859 c 108.57505,7.82493 194.85448,334.09819 199.27404,577.40347 4.75924,211.47167 1.89207,381.74666 -1.97134,546.64013 -28.27857,50.54744 -121.0348,17.12114 -195.29572,20.68996 C 163.9089,551.84581 67.138697,585.27211 38.860128,534.72491 z"
         style="fill:#f79f32;fill-opacity:1;stroke:none" />
    </clipPath>
  </defs>
  <sodipodi:namedview
     id="base"
     pagecolor="#ffffff"
     bordercolor="#666666"
     borderopacity="1.0"
     inkscape:pageopacity="0.0"
     inkscape:pageshadow="2"
     inkscape:zoom="1"
     inkscape:cx="247.07637"
     inkscape:cy="139.42232"
     inkscape:document-units="px"
     inkscape:current-layer="layer2"
     showgrid="false"
     showguides="true"
     inkscape:guide-bbox="true"
     inkscape:window-width="1920"
     inkscape:window-height="1028"
     inkscape:window-x="1432"
     inkscape:window-y="-8"
     inkscape:window-maximized="1"
     fit-margin-top="0"
     fit-margin-left="0"
     fit-margin-right="0"
     fit-margin-bottom="0">
    <sodipodi:guide
       orientation="0,1"
       position="236.56368,214.92094"
       id="guide3911" />
  </sodipodi:namedview>
  <metadata
     id="metadata7">
    <rdf:RDF>
      <cc:Work
         rdf:about="">
        <dc:format>image/svg+xml</dc:format>
        <dc:type
           rdf:resource="http://purl.org/dc/dcmitype/StillImage" />
        <dc:title></dc:title>
      </cc:Work>
    </rdf:RDF>
  </metadata>
  <g
     inkscape:groupmode="layer"
     id="layer2"
     inkscape:label="head"
     style="display:inline"
     transform="translate(-169.42363,-357.79943)">
    <path
       style="fill:#677821;fill-opacity:1;stroke:none"
       d="m 177.08077,772.12856 c -4.15735,-49.27186 -7.24266,-100.15177 -2.12132,-163.34167 4.75581,-72.70211 97.59958,-170.1959 214.43528,-172.53404 116.83571,2.33817 209.67948,99.83196 214.43529,172.53407 5.12134,63.1899 2.03603,114.06981 -2.12132,163.34167 -30.43007,15.10409 -130.24342,5.11597 -210.15429,6.18237 -79.91086,-1.0665 -184.04357,8.92162 -214.47364,-6.1824 z"
       id="path3001"
       inkscape:connector-curvature="0"
       sodipodi:nodetypes="ccccccc" />
  </g>
  <g
     inkscape:groupmode="layer"
     id="layer3"
     inkscape:label="shadow_bottom"
     style="display:inline"
     transform="translate(-169.42363,-357.79943)">
    <path
       sodipodi:type="arc"
       style="fill:none;stroke:none"
       id="path3777"
       sodipodi:cx="391.12213"
       sodipodi:cy="773.80908"
       sodipodi:rx="213.66039"
       sodipodi:ry="3.0901296"
       d="m 604.78252,773.80908 c 0,1.70663 -95.65902,3.09013 -213.66039,3.09013 -118.00137,0 -213.66038,-1.3835 -213.66038,-3.09013 0,-1.70663 95.65901,-3.09013 213.66038,-3.09013 118.00137,0 213.66039,1.3835 213.66039,3.09013 z" />
    <path
       sodipodi:type="arc"
       style="fill:#000000;fill-opacity:0.5098038;stroke:none"
       id="path3779"
       sodipodi:cx="236.17419"
       sodipodi:cy="532.77893"
       sodipodi:rx="197.32684"
       sodipodi:ry="48.117733"
       d="m 433.50104,532.77893 c 0,26.57469 -88.34624,48.11773 -197.32685,48.11773 -108.9806,0 -197.326839,-21.54304 -197.326839,-48.11773 0,-26.57469 88.346239,-48.11773 197.326839,-48.11773 108.98061,0 197.32685,21.54304 197.32685,48.11773 z"
       transform="matrix(1.0760824,0,0,0.29881024,135.26407,612.34728)"
       clip-path="url(#clipPath3861)" />
  </g>
  <g
     inkscape:groupmode="layer"
     id="layer10"
     inkscape:label="neck"
     transform="translate(-169.42363,-357.79943)">
    <path
       style="fill:#363636;fill-opacity:1;fill-rule:nonzero;stroke:none"
       d="m 272.61341,777.33172 c 76.92631,-4.05657 154.52429,-5.20232 233.58711,0 2.9674,0.19525 5.38235,1.60047 5.38235,3.5885 l 0,2.20123 c 0,1.98803 -2.40053,3.5885 -5.38235,3.5885 l -233.58711,0 c -2.98183,0 -5.38236,-1.60047 -5.38236,-3.5885 l 0,-2.20123 c 0,-1.98803 2.40981,-3.43175 5.38236,-3.5885 z"
       id="rect4035"
       inkscape:connector-curvature="0"
       sodipodi:nodetypes="sssssssss" />
  </g>
  <g
     inkscape:groupmode="layer"
     id="layer9"
     inkscape:label="helmet"
     transform="translate(-169.42363,-357.79943)" />
  <g
     inkscape:groupmode="layer"
     id="layer8"
     inkscape:label="horns"
     transform="translate(-169.42363,-357.79943)">
    <g
       id="g4000"
       transform="translate(2.0721414,0)">
      <path
         style="fill:#a9a9a9;fill-opacity:1;stroke:none"
         d="M 592.83799,551.6626 C 558.20412,504.42591 518.6164,430.59192 387.32258,430.92277 256.02876,430.59192 216.44104,504.42591 181.80717,551.6626 c 66.09288,5.12454 134.90811,6.16557 205.51541,-0.75462 70.60729,6.92019 139.42252,5.87916 205.51541,0.75462 z"
         id="path3968"
         inkscape:connector-curvature="0"
         sodipodi:nodetypes="ccccc" />
      <g
         transform="translate(7.1025995e-6,4)"
         id="g3989">
        <path
           style="fill:#a9a9a9;fill-opacity:1;stroke:none"
           d="m 288.29373,497.6394 -57.39506,37.82628 c -32.26461,-30.23404 -75.85764,-67.65977 -60.2928,-116.98792 10.14433,-24.08587 63.54378,-50.38333 91.90874,-64.67833 -15.1282,22.86693 -40.98043,51.88763 -45.05394,68.50288 -0.30336,39.21647 39.47726,54.79242 70.83306,75.33709 z"
           id="path3950"
           inkscape:connector-curvature="0"
           sodipodi:nodetypes="cccccc" />
        <rect
           style="fill:#7e7e7e;fill-opacity:1;fill-rule:nonzero;stroke:none"
           id="rect3946"
           width="91.972305"
           height="30.682722"
           x="-219.71486"
           y="489.57996"
           ry="5.3823533"
           transform="matrix(0.69962751,-0.71450777,0.68516247,0.72839027,0,0)" />
      </g>
      <g
         transform="matrix(-1,0,0,1,774.64518,4)"
         id="g3993">
        <path
           sodipodi:nodetypes="cccccc"
           inkscape:connector-curvature="0"
           id="path3995"
           d="m 288.29373,497.6394 -57.39506,37.82628 c -32.26461,-30.23404 -75.85764,-67.65977 -60.2928,-116.98792 10.14433,-24.08587 63.54378,-50.38333 91.90874,-64.67833 -15.1282,22.86693 -40.98043,51.88763 -45.05394,68.50288 -0.30336,39.21647 39.47726,54.79242 70.83306,75.33709 z"
           style="fill:#a9a9a9;fill-opacity:1;stroke:none" />
        <rect
           transform="matrix(0.69962751,-0.71450777,0.68516247,0.72839027,0,0)"
           ry="5.3823533"
           y="489.57996"
           x="-219.71486"
           height="30.682722"
           width="91.972305"
           id="rect3997"
           style="fill:#7e7e7e;fill-opacity:1;fill-rule:nonzero;stroke:none" />
      </g>
    </g>
  </g>
  <g
     inkscape:groupmode="layer"
     id="layer12"
     inkscape:label="beard"
     transform="translate(-169.42363,-357.79943)">
    <path
       style="fill:#502d16;stroke:none"
       d="m 319.59564,729.22532 c -1.00593,-61.71105 44.25851,-48.41688 69.7991,-69.22812 25.54057,20.81124 70.80502,7.51707 69.7991,69.22812 2.12567,10.3414 -49.32017,25.46147 -69.7991,65.75585 -20.47893,-40.29438 -71.92478,-55.41445 -69.7991,-65.75585 z"
       id="path4085"
       inkscape:connector-curvature="0"
       sodipodi:nodetypes="ccccc" />
  </g>
  <g
     inkscape:groupmode="layer"
     id="layer5"
     inkscape:label="mouth"
     style="display:inline"
     transform="translate(-169.42363,-357.79943)">
    <path
       style="fill:#363636;fill-opacity:1;fill-rule:nonzero;stroke:#363636;stroke-width:7.43235064;stroke-linejoin:round;stroke-miterlimit:4;stroke-opacity:1;stroke-dasharray:none"
       d="m 345.43419,676.6946 87.73244,0.24315 4.61495,36.0064 -96.77369,0 z"
       id="rect3872"
       inkscape:connector-curvature="0"
       sodipodi:nodetypes="ccccc" />
  </g>
  <g
     inkscape:groupmode="layer"
     id="layer11"
     inkscape:label="stache"
     style="display:inline"
     transform="translate(-169.42363,-357.79943)">
    <g
       id="g3805"
       transform="matrix(0.30989371,0,0,0.30989371,301.49449,482.12203)"
       style="fill:#432514;fill-opacity:1;stroke:none">
      <path
         sodipodi:nodetypes="cccccc"
         inkscape:connector-curvature="0"
         id="path3776"
         d="m 250.63366,545.3792 c -76.77409,1.88003 -104.24227,68.19185 -153.83919,74.24867 -35.73416,-0.52399 -59.67424,-29.41188 -59.16408,-66.32706 -13.80682,110.36359 63.84138,114.14489 68.65395,116.1836 73.63,14.93571 117.28835,10.44744 154.91147,-19.36393 15.75575,-12.45041 59.75841,-96.45347 -10.56215,-104.74128 z"
         style="fill:#432514;fill-opacity:1;stroke:none" />
      <path
         style="fill:#432514;fill-opacity:1;stroke:none"
         d="m 316.6592,545.3792 c 76.77409,1.88003 104.24227,68.19185 153.83919,74.24867 35.73416,-0.52399 59.67424,-29.41188 59.16408,-66.32706 13.80682,110.36359 -63.84138,114.14489 -68.65395,116.1836 -73.63,14.93571 -117.28835,10.44744 -154.91147,-19.36393 C 290.3413,637.67007 246.33864,553.66701 316.6592,545.3792 z"
         id="path3803"
         inkscape:connector-curvature="0"
         sodipodi:nodetypes="cccccc" />
    </g>
  </g>
  <g
     inkscape:groupmode="layer"
     id="layer6"
     inkscape:label="eye"
     style="display:inline"
     transform="translate(-169.42363,-357.79943)">
    <g
       id="g3915">
      <rect
         style="fill:#363636;fill-opacity:1;fill-rule:nonzero;stroke:#6e6e6e;stroke-width:10;stroke-linecap:round;stroke-linejoin:round;stroke-miterlimit:4;stroke-opacity:1;stroke-dasharray:none;stroke-dashoffset:14.48"
         id="rect3913"
         width="260"
         height="86"
         x="261.39474"
         y="536.36218"
         ry="6.6831074" />
      <rect
         ry="6.6831074"
         y="534.36218"
         x="259.39474"
         height="86"
         width="260"
         id="rect3885"
         style="fill:#363636;fill-opacity:1;fill-rule:nonzero;stroke:#363636;stroke-width:10;stroke-linecap:round;stroke-linejoin:round;stroke-miterlimit:4;stroke-opacity:1;stroke-dasharray:none;stroke-dashoffset:14.48" />
    </g>
  </g>
  <g
     inkscape:groupmode="layer"
     id="layer7"
     inkscape:label="pupil"
     style="display:inline"
     transform="translate(-169.42363,-357.79943)">
    <path
       style="fill:none;stroke:#0092e1;stroke-width:5;stroke-linecap:butt;stroke-linejoin:miter;stroke-miterlimit:4.0999999;stroke-opacity:1;stroke-dasharray:none"
       d="m 254.40815,580.06023 24.58378,0 22.24067,-23.00091 26.61815,36.69714 L 360,558.36218 l 27,33 42,-32 26,49 26,-65 20.41916,36.69805 22.91783,0"
       id="path3909"
       inkscape:connector-curvature="0"
       sodipodi:nodetypes="ccccccccccc" />
  </g>
</svg>
